<svg width="76" height="21" viewBox="0 0 76 21" fill="none" xmlns="http://www.w3.org/2000/svg">
<path d="M32.9712 12.0659C32.9712 9.75124 31.365 7.70423 29.0346 7.70423C28.1056 7.70423 27.2081 8.11363 26.6254 8.86945H26.5939V3.43701H23.5864V16.2702H26.5625V15.2624H26.6254C27.2395 16.0655 28.0269 16.4434 28.9874 16.4434C31.4123 16.4434 32.9712 14.2704 32.9712 12.0659ZM29.9164 12.0502C29.9164 12.9792 29.1763 13.7665 28.2316 13.7665C27.3025 13.7665 26.5625 12.9792 26.5625 12.0502C26.5625 11.1212 27.3025 10.3496 28.2316 10.3496C29.1763 10.3496 29.9164 11.1212 29.9164 12.0502Z" fill="#283237"/>
<path d="M36.772 12.4123V7.86169H33.7802V12.9635C33.7802 14.5853 34.5361 16.4434 36.7248 16.4434C37.5278 16.4434 38.4884 16.097 39.134 15.2309H39.1654V16.2702H42.1415V7.86169H39.1497V12.4123C39.1497 13.2469 38.6458 13.7035 37.9215 13.7035C37.1972 13.7035 36.772 13.1209 36.772 12.4123Z" fill="#283237"/>
<path d="M45.9267 12.8217H51.7528C51.8 12.5226 51.8 12.2391 51.8 11.94C51.8 9.51504 49.9262 7.67274 47.5013 7.67274C45.0764 7.67274 43.0137 9.57803 43.0137 12.0502C43.0137 14.6011 45.0922 16.4591 47.5801 16.4591C49.3121 16.4591 50.8238 15.7978 51.5796 14.1444L49.1074 13.2784C48.7925 13.798 48.2572 14.1287 47.643 14.1287C46.8242 14.1287 46.0842 13.6405 45.9267 12.8217ZM47.4541 9.95594C48.2099 9.95594 48.7768 10.3968 48.887 11.1526H45.974C46.1157 10.4756 46.7613 9.95594 47.4541 9.95594Z" fill="#283237"/>
<path d="M58.0359 11.7195V16.2702H61.0277V11.1841C61.0277 9.54654 60.3034 7.68849 58.0831 7.68849C57.2801 7.68849 56.3196 8.05065 55.674 8.91669H55.6425V7.86169H52.6665V16.2702H55.6582V11.7195C55.6582 10.885 56.1621 10.4283 56.8864 10.4283C57.6108 10.4283 58.0359 11.0267 58.0359 11.7195Z" fill="#283237"/>
<path d="M61.8211 12.0659C61.8211 14.6326 63.9154 16.4591 66.4348 16.4591C68.9542 16.4591 71.0957 14.5853 71.0957 12.0029C71.0957 9.45206 68.9542 7.67274 66.4978 7.67274C64.0256 7.67274 61.8211 9.51504 61.8211 12.0659ZM64.8287 12.0502C64.8287 11.1369 65.5372 10.3496 66.4663 10.3496C67.3953 10.3496 68.0881 11.1369 68.0881 12.0502C68.0881 12.9477 67.3953 13.7665 66.4663 13.7665C65.5372 13.7665 64.8287 12.9635 64.8287 12.0502Z" fill="#283237"/>
<path d="M16.3005 5.64135C16.0765 5.42212 15.8335 5.22386 15.5704 5.04599L16.1597 1.15574C16.1771 1.04134 16.1458 0.92471 16.0741 0.836603C16.0025 0.748496 15.8977 0.697754 15.7873 0.697754H11.5405C11.53 0.697754 11.5196 0.698208 11.5093 0.699105C9.20292 0.78312 6.86897 1.66088 5.17872 3.44368C3.5286 5.18415 2.52451 7.7532 2.72804 11.1874L2.72792 11.2035C2.63963 11.2076 2.55225 11.2177 2.46598 11.2335C1.69834 11.3739 1.10925 11.955 0.834006 12.6524C0.556849 13.3546 0.582743 14.2134 1.08979 14.9175C1.27014 15.1679 1.50445 15.3895 1.79445 15.5742C1.67804 15.8082 1.61222 16.0744 1.61222 16.3566C1.61222 17.2915 2.33417 18.0494 3.22474 18.0494C3.85956 18.0494 4.40869 17.6643 4.67174 17.1045C5.42309 18.011 6.33457 18.6755 7.31435 19.1546C9.16437 20.0592 11.2546 20.3032 12.9779 20.3032C14.9895 20.3032 16.5889 19.3917 17.6808 18.3C18.2263 17.7546 18.65 17.1597 18.9392 16.601C19.2237 16.0514 19.3952 15.5032 19.3952 15.0555C19.3952 14.592 19.343 14.1661 19.2627 13.7765C19.911 13.2936 20.3341 12.4992 20.3341 11.6012C20.3341 10.2159 19.3274 9.07746 18.0401 8.94801C17.6998 7.58789 17.1552 6.4778 16.3005 5.64135Z" fill="#283237" stroke="#283237" stroke-width="0.244621" stroke-linecap="round" stroke-linejoin="round"/>
<path d="M10.4593 4.22607C3.19743 4.2261 2.48044 10.365 3.47107 13.9125C4.87666 18.9459 9.59783 19.9107 12.9898 19.9107C16.7838 19.9107 19.0301 16.4773 19.0301 15.0588C19.0301 13.1945 18.1253 11.9623 18.0413 11.1565C17.5534 6.47095 15.7607 4.22606 10.4593 4.22607Z" fill="white"/>
<path fill-rule="evenodd" clip-rule="evenodd" d="M4.20632 7.91895C3.29926 9.78189 3.35612 12.0933 3.83297 13.8009C4.50088 16.1927 5.94805 17.6105 7.64483 18.4401C9.3548 19.2763 11.3212 19.5147 12.9899 19.5147C14.7723 19.5147 16.193 18.7095 17.1727 17.7299C17.663 17.2397 18.038 16.7103 18.2886 16.2262C18.5438 15.7331 18.6531 15.3202 18.6531 15.0587C18.6531 14.1958 18.4444 13.4737 18.2156 12.8534C18.1583 12.6978 18.0999 12.5495 18.0429 12.4054C18.0365 12.3891 18.03 12.3729 18.0236 12.3566C17.9738 12.2308 17.9247 12.1068 17.8804 11.9887C17.7826 11.7276 17.6935 11.4573 17.6666 11.1993C17.4261 8.89 16.8712 7.27358 15.7983 6.22353C14.7277 5.17569 13.0687 4.62171 10.4594 4.62172C6.94666 4.62173 5.09502 6.09371 4.20632 7.91895ZM3.53482 7.55866C4.57244 5.42758 6.71025 3.83009 10.4594 3.83008C13.1515 3.83007 15.0395 4.39853 16.3126 5.64451C17.5834 6.88829 18.1688 8.73709 18.4162 11.1133C18.4313 11.2583 18.4868 11.4441 18.5822 11.699C18.6236 11.8094 18.6697 11.9258 18.7199 12.0526C18.7263 12.0688 18.7328 12.0852 18.7394 12.1017C18.7966 12.2463 18.8579 12.4023 18.9189 12.5676C19.1636 13.231 19.4072 14.0572 19.4072 15.0587C19.4072 15.5064 19.2357 16.0545 18.9512 16.6042C18.662 17.1628 18.2383 17.7577 17.6928 18.3032C16.6009 19.3949 15.0015 20.3064 12.9899 20.3064C11.2666 20.3064 9.17642 20.0624 7.3264 19.1578C5.46319 18.2467 3.84699 16.6653 3.1093 14.0236C2.59552 12.1838 2.51556 9.65204 3.53482 7.55866Z" fill="#283237"/>
<path d="M11.5661 1.09668C7.08769 1.2451 2.56419 4.48812 3.14066 11.5117C4.27184 6.37701 10.0668 4.20159 12.2844 7.4669L11.5661 1.09668Z" fill="#283237"/>
<path fill-rule="evenodd" clip-rule="evenodd" d="M11.5543 0.700884C11.7499 0.694403 11.9177 0.846018 11.9407 1.04998L12.6589 7.4202C12.6791 7.59973 12.5809 7.77083 12.4203 7.83596C12.2597 7.90109 12.0774 7.8437 11.9774 7.6965C11.0034 6.26228 9.21213 5.97093 7.44421 6.70706C5.6846 7.43973 4.04405 9.1679 3.50809 11.6007C3.46629 11.7905 3.29919 11.9201 3.11411 11.9063C2.92903 11.8926 2.78099 11.7395 2.76506 11.5455C2.46854 7.93269 3.48411 5.24656 5.19062 3.44661C6.88895 1.65528 9.23716 0.777676 11.5543 0.700884ZM3.50059 9.41392C4.3616 7.76244 5.72316 6.57203 7.16616 5.97119C8.75658 5.30897 10.5093 5.34808 11.7795 6.35558L11.2331 1.50992C9.18937 1.65313 7.18213 2.46827 5.72513 4.00505C4.52282 5.27319 3.67389 7.05499 3.50059 9.41392Z" fill="#283237"/>
<path fill-rule="evenodd" clip-rule="evenodd" d="M8.62201 2.40256C8.702 2.60439 8.61098 2.83608 8.41871 2.92005C8.36693 2.94266 8.31541 2.96593 8.26415 2.98984C8.07385 3.07861 7.85102 2.98863 7.76646 2.78886C7.68189 2.5891 7.76761 2.35519 7.95791 2.26641C8.01466 2.23994 8.0717 2.21418 8.12904 2.18914C8.32131 2.10517 8.54202 2.20072 8.62201 2.40256ZM7.53432 2.91787C7.64391 3.10375 7.58921 3.3477 7.41213 3.46275C6.89797 3.7968 6.41954 4.20227 5.98772 4.67346C5.84334 4.831 5.60464 4.83584 5.45457 4.68429C5.3045 4.53273 5.29989 4.28215 5.44426 4.12462C5.91925 3.60634 6.4468 3.15893 7.01526 2.7896C7.19234 2.67456 7.42473 2.73198 7.53432 2.91787Z" fill="white"/>
<path d="M5.44059 15.6548L4.66858 12.6152C1.38675 8.56227 -1.81766 16.8706 5.44059 15.6548Z" fill="white"/>
<path fill-rule="evenodd" clip-rule="evenodd" d="M2.47819 11.2367C3.2597 11.0937 4.13278 11.4221 4.94574 12.3471C5.08695 12.5078 5.07735 12.7582 4.9243 12.9064C4.77125 13.0547 4.5327 13.0446 4.39149 12.8839C3.70141 12.0988 3.07078 11.9318 2.60769 12.0166C2.13072 12.1039 1.7343 12.4737 1.54291 12.9586C1.35342 13.4387 1.37975 13.9937 1.70356 14.4434C2.02902 14.8953 2.70923 15.314 3.96611 15.3813C4.17409 15.3924 4.33408 15.5784 4.32347 15.7967C4.31286 16.0151 4.13567 16.183 3.92769 16.1719C2.53668 16.0974 1.60741 15.6225 1.102 14.9208C0.59495 14.2167 0.569056 13.3579 0.846213 12.6556C1.12146 11.9582 1.71055 11.3772 2.47819 11.2367Z" fill="#283237"/>
<path d="M4.47238 16.3599C4.47238 17.0762 3.91924 17.6568 3.23692 17.6568C2.5546 17.6568 2.00146 17.0762 2.00146 16.3599C2.00146 15.6436 2.5546 15.063 3.23692 15.063C3.91924 15.063 4.47238 15.6436 4.47238 16.3599Z" fill="white"/>
<path fill-rule="evenodd" clip-rule="evenodd" d="M3.23703 15.4586C2.76295 15.4586 2.37863 15.8621 2.37863 16.3597C2.37863 16.8574 2.76295 17.2608 3.23703 17.2608C3.71111 17.2608 4.09542 16.8574 4.09542 16.3597C4.09542 15.8621 3.71111 15.4586 3.23703 15.4586ZM1.62451 16.3597C1.62451 15.4249 2.34646 14.667 3.23703 14.667C4.1276 14.667 4.84954 15.4249 4.84954 16.3597C4.84954 17.2946 4.1276 18.0525 3.23703 18.0525C2.34646 18.0525 1.62451 17.2946 1.62451 16.3597Z" fill="#283237"/>
<path d="M6.77832 11.6046C6.77832 10.3511 7.7463 9.33496 8.94037 9.33496H15.8898C17.0839 9.33496 18.0519 10.3511 18.0519 11.6046V11.6046C18.0519 12.858 17.0839 13.8742 15.8898 13.8742H8.94037C7.7463 13.8742 6.77832 12.858 6.77832 11.6046V11.6046Z" fill="#283237"/>
<path fill-rule="evenodd" clip-rule="evenodd" d="M6.40137 11.6044C6.40137 10.1323 7.53816 8.93896 8.94047 8.93896H15.8899C17.2922 8.93896 18.429 10.1323 18.429 11.6044C18.429 13.0765 17.2922 14.2698 15.8899 14.2698H8.94047C7.53816 14.2698 6.40137 13.0765 6.40137 11.6044ZM8.94047 9.7306C7.95465 9.7306 7.15549 10.5695 7.15549 11.6044C7.15549 12.6393 7.95465 13.4782 8.94047 13.4782H15.8899C16.8757 13.4782 17.6749 12.6393 17.6749 11.6044C17.6749 10.5695 16.8757 9.7306 15.8899 9.7306H8.94047Z" fill="#283237"/>
<path d="M8.07812 11.6046C8.07812 10.3511 9.04611 9.33496 10.2402 9.33496H17.8073C19.0014 9.33496 19.9694 10.3511 19.9694 11.6046V11.6046C19.9694 12.858 19.0014 13.8742 17.8073 13.8742H10.2402C9.04611 13.8742 8.07812 12.858 8.07812 11.6046V11.6046Z" fill="white"/>
<path fill-rule="evenodd" clip-rule="evenodd" d="M7.70068 11.6044C7.70068 10.1323 8.83748 8.93896 10.2398 8.93896H17.807C19.2093 8.93896 20.3461 10.1323 20.3461 11.6044C20.3461 13.0765 19.2093 14.2698 17.807 14.2698H10.2398C8.83748 14.2698 7.70068 13.0765 7.70068 11.6044ZM10.2398 9.7306C9.25397 9.7306 8.4548 10.5695 8.4548 11.6044C8.4548 12.6393 9.25397 13.4782 10.2398 13.4782H17.807C18.7928 13.4782 19.5919 12.6393 19.5919 11.6044C19.5919 10.5695 18.7928 9.7306 17.807 9.7306H10.2398Z" fill="#283237"/>
<path d="M9.77686 11.5913C9.77686 11.2332 10.0534 10.9429 10.3946 10.9429H17.6529C17.994 10.9429 18.2706 11.2332 18.2706 11.5913V11.5913C18.2706 11.9495 17.994 12.2398 17.6529 12.2398H10.3946C10.0534 12.2398 9.77686 11.9495 9.77686 11.5913V11.5913Z" fill="#283237"/>
<path fill-rule="evenodd" clip-rule="evenodd" d="M9.39941 11.5897C9.39941 11.013 9.8448 10.5454 10.3942 10.5454H17.6525C18.2019 10.5454 18.6473 11.013 18.6473 11.5897C18.6473 12.1664 18.2019 12.634 17.6525 12.634H10.3942C9.8448 12.634 9.39941 12.1664 9.39941 11.5897ZM10.3942 11.337C10.2613 11.337 10.1535 11.4502 10.1535 11.5897C10.1535 11.7292 10.2613 11.8423 10.3942 11.8423H17.6525C17.7854 11.8423 17.8932 11.7292 17.8932 11.5897C17.8932 11.4502 17.7854 11.337 17.6525 11.337H10.3942Z" fill="#283237"/>
<path d="M10.1426 11.5879C10.1426 11.3641 10.3154 11.1826 10.5287 11.1826H12.2274C12.4406 11.1826 12.6135 11.3641 12.6135 11.5879V11.5879C12.6135 11.8117 12.4406 11.9932 12.2274 11.9932H10.5287C10.3154 11.9932 10.1426 11.8117 10.1426 11.5879V11.5879Z" fill="white"/>
<path fill-rule="evenodd" clip-rule="evenodd" d="M3.13388 13.8398C3.04318 13.7987 2.91967 13.7751 2.68491 13.7829C2.47677 13.7898 2.30269 13.6183 2.29609 13.3998C2.28949 13.1813 2.45287 12.9986 2.66101 12.9917C2.94372 12.9822 3.19513 13.0053 3.43278 13.113C3.67061 13.2208 3.85512 13.3955 4.03586 13.609C4.17418 13.7724 4.1601 14.0226 4.00443 14.1678C3.84875 14.313 3.61043 14.2982 3.47211 14.1348C3.32167 13.9571 3.22441 13.8808 3.13388 13.8398Z" fill="#283237"/>
<path fill-rule="evenodd" clip-rule="evenodd" d="M11.4262 15.1198C11.6223 15.0463 11.838 15.1536 11.908 15.3595C12.029 15.7151 12.2539 15.9477 12.5724 16.0845C12.9036 16.2268 13.3508 16.2704 13.8977 16.1953C14.1042 16.1669 14.2935 16.3196 14.3205 16.5363C14.3475 16.7531 14.2021 16.9518 13.9956 16.9802C13.3708 17.0661 12.7801 17.0292 12.2867 16.8172C11.7807 16.5997 11.3946 16.2041 11.1978 15.6257C11.1278 15.4198 11.23 15.1933 11.4262 15.1198Z" fill="#283237"/>
<path d="M16.2628 14.2364C16.2628 14.8855 15.7442 15.4117 15.1045 15.4117C14.4649 15.4117 13.9463 14.8855 13.9463 14.2364C13.9463 13.5873 14.4649 13.061 15.1045 13.061C15.7442 13.061 16.2628 13.5873 16.2628 14.2364Z" fill="white"/>
<path fill-rule="evenodd" clip-rule="evenodd" d="M14.9861 13.6829C14.7081 13.7385 14.4478 13.925 14.3218 14.248C14.2429 14.4503 14.0227 14.5471 13.83 14.4643C13.6373 14.3814 13.545 14.1503 13.6239 13.948C13.8582 13.3475 14.3479 13.0045 14.8452 12.9052C15.3304 12.8084 15.8828 12.9355 16.2227 13.3593C16.5266 13.7383 16.6089 14.352 16.439 14.8486C16.3497 15.1097 16.1848 15.3576 15.9263 15.5259C15.667 15.6947 15.3448 15.7633 14.9748 15.723C14.7676 15.7005 14.6171 15.506 14.6385 15.2885C14.66 15.0711 14.8453 14.9131 15.0524 14.9356C15.289 14.9613 15.437 14.9129 15.5288 14.8532C15.6213 14.793 15.6883 14.7006 15.7292 14.581C15.8199 14.3161 15.7558 14.0063 15.6458 13.8692C15.5244 13.7178 15.2762 13.625 14.9861 13.6829Z" fill="#283237"/>
<path d="M14.8344 7.46814H12.2863L11.5527 1.09668H15.7996L14.8344 7.46814Z" fill="white"/>
<path fill-rule="evenodd" clip-rule="evenodd" d="M11.2707 0.833944C11.3422 0.749195 11.445 0.700684 11.5528 0.700684H15.7997C15.9101 0.700684 16.0149 0.751426 16.0865 0.839533C16.1582 0.92764 16.1894 1.04427 16.1721 1.15867L15.2069 7.53013C15.1778 7.72232 15.0199 7.86379 14.8345 7.86379H12.2864C12.0956 7.86379 11.9349 7.71425 11.9121 7.51546L11.1785 1.144C11.1656 1.03156 11.1991 0.918693 11.2707 0.833944ZM11.9782 1.49232L12.6206 7.07215H14.5127L15.358 1.49232H11.9782Z" fill="#283237"/>
</svg>
