<svg width="32" height="33" viewBox="0 0 32 33" fill="none" xmlns="http://www.w3.org/2000/svg">
<path d="M26.6026 8.06274C24.0639 6.02141 20.0479 5.67608 19.8773 5.66141C19.6093 5.63874 19.3546 5.79074 19.2453 6.03608C19.2373 6.05208 19.1493 6.25341 19.0519 6.56674C20.7306 6.84941 22.7933 7.42007 24.6599 8.57874C24.9586 8.76407 25.0506 9.15741 24.8653 9.45741C24.7453 9.65207 24.5359 9.75874 24.3226 9.75874C24.2079 9.75874 24.0919 9.72808 23.9866 9.66274C20.7786 7.67341 16.7706 7.57341 15.9999 7.57341C15.2293 7.57341 11.2199 7.67341 8.01459 9.66274C7.71459 9.84941 7.32259 9.75607 7.13592 9.45741C6.94925 9.15741 7.04259 8.76541 7.34125 8.57874C9.20792 7.42141 11.2693 6.84941 12.9493 6.56674C12.8506 6.25208 12.7626 6.05208 12.7559 6.03608C12.6453 5.79074 12.3919 5.63608 12.1226 5.66274C11.9533 5.67608 7.93725 6.02141 5.36392 8.09207C4.01992 9.33341 1.33325 16.5974 1.33325 22.8774C1.33325 22.9881 1.36259 23.0974 1.41725 23.1934C3.27192 26.4507 8.33059 27.3041 9.48392 27.3414C9.49059 27.3414 9.49725 27.3414 9.50392 27.3414C9.70792 27.3414 9.89992 27.2441 10.0199 27.0787L11.1866 25.4761C8.04125 24.6627 6.43459 23.2827 6.34125 23.2014C6.07725 22.9681 6.05192 22.5654 6.28525 22.3014C6.51859 22.0374 6.91992 22.0121 7.18392 22.2441C7.22259 22.2787 10.1813 24.7894 15.9999 24.7894C21.8293 24.7894 24.7879 22.2681 24.8173 22.2427C25.0813 22.0134 25.4839 22.0374 25.7159 22.3027C25.9479 22.5667 25.9226 22.9681 25.6599 23.2001C25.5666 23.2827 23.9599 24.6614 20.8146 25.4747L21.9813 27.0774C22.1013 27.2427 22.2933 27.3401 22.4973 27.3401C22.5039 27.3401 22.5106 27.3401 22.5173 27.3401C23.6706 27.3041 28.7293 26.4507 30.5839 23.1921C30.6373 23.0961 30.6666 22.9881 30.6666 22.8774C30.6666 16.5974 27.9799 9.33341 26.6026 8.06274ZM11.8546 20.3267C10.6226 20.3267 9.62259 19.1841 9.62259 17.7761C9.62259 16.3681 10.6213 15.2254 11.8546 15.2254C13.0879 15.2254 14.0866 16.3681 14.0866 17.7761C14.0866 19.1841 13.0879 20.3267 11.8546 20.3267ZM20.1453 20.3267C18.9133 20.3267 17.9133 19.1841 17.9133 17.7761C17.9133 16.3681 18.9119 15.2254 20.1453 15.2254C21.3773 15.2254 22.3773 16.3681 22.3773 17.7761C22.3773 19.1841 21.3773 20.3267 20.1453 20.3267Z" fill="black"/>
</svg>
