<svg width="24" height="24" viewBox="0 0 24 24" fill="none" xmlns="http://www.w3.org/2000/svg">
<path fill-rule="evenodd" clip-rule="evenodd" d="M12 22C17.5225 22 22 17.5225 22 12C22 6.47747 17.5237 2 12 2C6.47747 2 2 6.47747 2 12C2 17.5225 6.47747 22 12 22ZM18.5289 13.0922V13.7364C18.5289 13.7734 18.5063 13.8062 18.4734 13.8206C18.272 13.9069 17.5826 14.2234 17.296 14.622C17.1365 14.8439 16.9853 15.0867 16.8333 15.3306C16.288 16.2056 15.7332 17.096 14.7562 17.096H9.5442C7.69691 17.096 6.19998 15.5939 6.19998 13.7405V13.6809C6.19998 13.6316 6.24005 13.5915 6.28938 13.5915H9.19487C9.2524 13.5915 9.29453 13.6449 9.2894 13.7014C9.26884 13.8905 9.30378 14.0836 9.39316 14.2593C9.56578 14.6097 9.92331 14.8285 10.3096 14.8285H11.748V13.7056H10.326C10.2531 13.7056 10.21 13.6213 10.2521 13.5617C10.2606 13.5486 10.2698 13.5351 10.2795 13.521C10.2872 13.5098 10.2953 13.498 10.3034 13.4857C10.438 13.2946 10.6302 12.9977 10.8213 12.6596C10.9517 12.4316 11.0781 12.1881 11.1798 11.9436C11.1989 11.9026 11.2144 11.8607 11.2297 11.8196L11.2332 11.81C11.2404 11.7897 11.2477 11.7699 11.2549 11.7502C11.2754 11.6941 11.2951 11.64 11.3103 11.586C11.3271 11.5357 11.3411 11.4832 11.3547 11.4327L11.3601 11.4125L11.3637 11.399C11.412 11.1915 11.4326 10.9716 11.4326 10.7435C11.4326 10.6542 11.4285 10.5607 11.4202 10.4713C11.4161 10.3737 11.4038 10.276 11.3915 10.1785C11.3832 10.0922 11.3678 10.0069 11.3514 9.91751C11.3308 9.78702 11.3021 9.65758 11.2692 9.52709L11.2579 9.47778C11.2505 9.45109 11.2436 9.42477 11.2366 9.3986C11.2203 9.33713 11.2041 9.27641 11.1839 9.21373C11.1028 8.93324 11.0093 8.65996 10.9106 8.40413C10.8748 8.30275 10.8338 8.20545 10.7929 8.10816L10.7925 8.10722C10.7449 7.99179 10.6966 7.88461 10.6507 7.78268L10.6498 7.78063C10.6376 7.75352 10.6255 7.72678 10.6137 7.70036C10.585 7.64282 10.5603 7.59042 10.5356 7.537C10.5079 7.47638 10.4791 7.41578 10.4504 7.35822C10.4423 7.34091 10.4338 7.32408 10.4254 7.30753C10.4124 7.28185 10.3997 7.25686 10.3898 7.23187L10.2141 6.9072C10.1894 6.86302 10.2305 6.81062 10.2788 6.82398L11.3781 7.12193H11.3812C11.3824 7.12193 11.3833 7.12228 11.384 7.12257L11.3846 7.12283C11.3849 7.1229 11.3851 7.12296 11.3853 7.12296L11.5302 7.16302L11.6894 7.20822L11.748 7.22467V6.57124C11.748 6.25582 12.0007 6 12.3131 6C12.4692 6 12.611 6.06369 12.7127 6.16747C12.8144 6.27124 12.8781 6.41302 12.8781 6.57124V7.54111L12.9952 7.57398C13.0045 7.57707 13.0138 7.58118 13.022 7.58733C13.0329 7.59549 13.0455 7.60512 13.0598 7.61606C13.0834 7.63403 13.1117 7.65555 13.1442 7.6798C13.1608 7.69306 13.1779 7.70749 13.1959 7.72268C13.2224 7.74515 13.2511 7.76934 13.2829 7.79384C13.3888 7.87913 13.5151 7.98907 13.6538 8.11542C13.6908 8.14729 13.7268 8.18016 13.7596 8.21304C13.9384 8.37947 14.1388 8.57469 14.3299 8.79044C14.3833 8.85104 14.4357 8.91269 14.4891 8.97742C14.5079 9.00049 14.527 9.02344 14.546 9.04631L14.5464 9.04673C14.5815 9.08884 14.6165 9.13081 14.6484 9.17264C14.6602 9.18848 14.6723 9.20442 14.6844 9.22048C14.7384 9.29188 14.7941 9.36548 14.8436 9.44182C14.8561 9.46102 14.8693 9.4804 14.8826 9.49981C14.8999 9.52507 14.9173 9.55041 14.933 9.57538C15.011 9.69353 15.0799 9.8158 15.1456 9.93804C15.1734 9.99455 15.2021 10.0562 15.2268 10.1168C15.2997 10.2802 15.3573 10.4466 15.3942 10.6131C15.4056 10.649 15.4138 10.6881 15.4179 10.723V10.7312C15.4302 10.7805 15.4343 10.8329 15.4384 10.8864C15.4549 11.0569 15.4466 11.2274 15.4097 11.399C15.3942 11.472 15.3737 11.5408 15.349 11.6138L15.3407 11.6375C15.3187 11.7 15.2961 11.7643 15.2679 11.8254C15.2062 11.9682 15.1333 12.111 15.047 12.2446C15.0192 12.2939 14.9864 12.3463 14.9535 12.3956C14.9359 12.4213 14.918 12.4462 14.9005 12.4706C14.8823 12.496 14.8644 12.521 14.8477 12.5456C14.8025 12.6073 14.7542 12.672 14.7049 12.7295C14.6607 12.7901 14.6155 12.8508 14.5662 12.9042C14.4973 12.9853 14.4316 13.0624 14.3627 13.1364C14.3216 13.1847 14.2775 13.234 14.2322 13.2782C14.1943 13.3205 14.1556 13.3591 14.1194 13.3952L14.1018 13.4127C14.0329 13.4816 13.9754 13.535 13.9271 13.5792L13.8141 13.683C13.7977 13.6973 13.7761 13.7056 13.7535 13.7056H12.8781V14.8285H13.9795C14.2261 14.8285 14.4603 14.7412 14.6494 14.5809L14.6544 14.5765C14.7277 14.5126 15.0047 14.271 15.3306 13.911C15.3418 13.8987 15.3562 13.8895 15.3727 13.8854L18.4148 13.0059C18.4713 12.9894 18.5289 13.0326 18.5289 13.0922ZM6.93355 12.336L6.97671 12.2682L9.5781 8.19865C9.61611 8.13905 9.7055 8.14522 9.73426 8.20993C10.1689 9.18393 10.5439 10.3952 10.3682 11.1494C10.2932 11.4596 10.0877 11.8798 9.85653 12.2682C9.82673 12.3247 9.79386 12.3802 9.75893 12.4336C9.74248 12.4583 9.71475 12.4727 9.68495 12.4727H7.00957C6.93766 12.4727 6.89555 12.3946 6.93355 12.336Z" fill="black"/>
</svg>
